<?xml version="1.0" encoding="UTF-8"?>
<svg width="162px" height="162px" viewBox="0 0 162 162" version="1.1" xmlns="http://www.w3.org/2000/svg" xmlns:xlink="http://www.w3.org/1999/xlink">
    <!-- Generator: Sketch 52.3 (67297) - http://www.bohemiancoding.com/sketch -->
    <title>button</title>
    <desc>Created with Sketch.</desc>
    <defs>
        <linearGradient x1="50%" y1="0%" x2="50%" y2="100%" id="linearGradient-1">
            <stop stop-color="#ABA154" offset="0%"></stop>
            <stop stop-color="#72672A" offset="100%"></stop>
        </linearGradient>
        <circle id="path-2" cx="80" cy="80" r="40"></circle>
        <filter x="-65.6%" y="-28.1%" width="193.8%" height="193.8%" filterUnits="objectBoundingBox" id="filter-3">
            <feOffset dx="-15" dy="15" in="SourceAlpha" result="shadowOffsetOuter1"></feOffset>
            <feGaussianBlur stdDeviation="10" in="shadowOffsetOuter1" result="shadowBlurOuter1"></feGaussianBlur>
            <feColorMatrix values="0 0 0 0 0   0 0 0 0 0   0 0 0 0 0  0 0 0 0.289175725 0" type="matrix" in="shadowBlurOuter1"></feColorMatrix>
        </filter>
    </defs>
    <g id="Page-1" stroke="none" stroke-width="1" fill="none" fill-rule="evenodd">
        <g id="What-if-Bio-isn't-a-long-texts" transform="translate(-639.000000, -839.000000)">
            <g id="button" transform="translate(640.000000, 840.000000)">
                <circle id="Oval" stroke="#273F49" opacity="0.100000001" fill-rule="nonzero" cx="80" cy="80" r="60"></circle>
                <circle id="Oval" stroke="#273F49" opacity="0.100000001" fill-rule="nonzero" cx="80" cy="80" r="80"></circle>
                <g id="Oval" fill-rule="nonzero">
                    <use fill="black" fill-opacity="1" filter="url(#filter-3)" xlink:href="#path-2"></use>
                    <use fill="url(#linearGradient-1)" xlink:href="#path-2"></use>
                </g>
                <path d="M98.707,60.293 C98.423,60.008 97.995,59.921 97.625,60.073 L55.625,77.073 C55.266,77.218 55.022,77.558 55.002,77.945 C54.981,78.332 55.185,78.696 55.526,78.88 L68,85.598 L73.402,91 L80.119,103.474 C80.295,103.799 80.634,104 81,104 C81.018,104 81.036,104 81.055,103.998 C81.442,103.977 81.782,103.734 81.927,103.375 L98.927,61.375 C99.077,61.003 98.991,60.577 98.707,60.293 Z" id="Path" fill="#FFFFFF"></path>
                <path d="M98.707,60.293 C98.336,59.922 97.743,59.9 97.347,60.243 L68.347,85.243 C68.127,85.433 68,85.709 68,86 L68,90 C68,90.553 68.447,91 69,91 L73,91 C73.291,91 73.567,90.873 73.758,90.653 L98.758,61.653 C99.1,61.256 99.077,60.663 98.707,60.293 Z" id="Path" fill="#B8B9AE" opacity="0.900000036"></path>
            </g>
        </g>
    </g>
</svg>