<?xml version="1.0" encoding="UTF-8"?>
<svg width="1160px" height="1582px" viewBox="0 0 1160 1582" version="1.1" xmlns="http://www.w3.org/2000/svg" xmlns:xlink="http://www.w3.org/1999/xlink">
    <!-- Generator: Sketch 52.2 (67145) - http://www.bohemiancoding.com/sketch -->
    <title>illustration</title>
    <desc>Created with Sketch.</desc>
    <g id="Version-6" stroke="none" stroke-width="1" fill="none" fill-rule="evenodd">
        <g id="Col:-80/40/10-Row:-20" transform="translate(-140.000000, -3480.000000)">
            <g id="wireframes" transform="translate(140.000000, 3405.000000)">
                <g id="userflow">
                    <g id="illustration" transform="translate(0.000000, 75.000000)">
                        <rect id="Rectangle" stroke="#16363C" stroke-width="0.5" x="0.25" y="0.25" width="259.5" height="500.5" rx="20"></rect>
                        <rect id="Rectangle" stroke="#16363C" stroke-width="0.5" x="300.25" y="0.25" width="259.5" height="500.5" rx="20"></rect>
                        <rect id="Rectangle" stroke="#16363C" stroke-width="0.5" x="600.25" y="0.25" width="259.5" height="500.5" rx="20"></rect>
                        <rect id="Rectangle" stroke="#16363C" stroke-width="0.5" x="900.25" y="0.25" width="259.5" height="500.5" rx="20"></rect>
                        <rect id="Rectangle" stroke="#16363C" stroke-width="0.5" x="0.25" y="541.25" width="259.5" height="500.5" rx="20"></rect>
                        <rect id="Rectangle" stroke="#16363C" stroke-width="0.5" x="300.25" y="541.25" width="259.5" height="500.5" rx="20"></rect>
                        <rect id="Rectangle" stroke="#16363C" stroke-width="0.5" x="600.25" y="541.25" width="259.5" height="500.5" rx="20"></rect>
                        <rect id="Rectangle" stroke="#16363C" stroke-width="0.5" x="900.25" y="541.25" width="259.5" height="500.5" rx="20"></rect>
                        <rect id="Rectangle" stroke="#16363C" stroke-width="0.5" x="0.25" y="1081.25" width="259.5" height="500.5" rx="20"></rect>
                        <rect id="Rectangle" stroke="#16363C" stroke-width="0.5" x="300.25" y="1081.25" width="259.5" height="500.5" rx="20"></rect>
                        <rect id="Rectangle" stroke="#16363C" stroke-width="0.5" x="600.25" y="1081.25" width="259.5" height="500.5" rx="20"></rect>
                        <rect id="Rectangle" stroke="#16363C" stroke-width="0.5" x="900.25" y="1081.25" width="259.5" height="500.5" rx="20"></rect>
                        <path id="Path" d="M172.125582,250.961221 C171.640352,254.353515 168.722943,256.961221 165.196471,256.961221 C161.330478,256.961221 158.196471,253.827214 158.196471,249.961221 C158.196471,246.095227 161.330478,242.961221 165.196471,242.961221 C168.722943,242.961221 171.640352,245.568927 172.125582,248.961221 L353,248.961221 C375.643675,248.961221 394,267.317546 394,289.961221 L394,376.839233 L400,376.839233 L393,390.839233 L386,376.839233 L392,376.839233 L392,289.961221 C392,268.422115 374.539105,250.961221 353,250.961221 L172.125582,250.961221 Z" fill="#F01AA5" fill-rule="nonzero"></path>
                        <path id="Path-2" d="M482.929111,979.161515 C482.443881,982.553809 479.526472,985.161515 476,985.161515 C472.134007,985.161515 469,982.027508 469,978.161515 C469,974.295522 472.134007,971.161515 476,971.161515 C479.526472,971.161515 482.443881,973.769221 482.929111,977.161515 L541.075139,977.161515 C562.614244,977.161515 580.075139,959.70062 580.075139,938.161515 L580.075139,447.606048 C580.075139,424.962374 598.431464,406.606048 621.075139,406.606048 L680.333135,406.606048 L680.333135,400.606048 L694.333135,407.606048 L680.333135,414.606048 L680.333135,408.606048 L621.075139,408.606048 C599.536033,408.606048 582.075139,426.066943 582.075139,447.606048 L582.075139,938.161515 C582.075139,960.80519 563.718813,979.161515 541.075139,979.161515 L482.929111,979.161515 Z" fill="#F01AA5" fill-rule="nonzero"></path>
                    </g>
                </g>
            </g>
        </g>
    </g>
</svg>